<svg width="222" height="154" viewBox="0 0 222 154" fill="none" xmlns="http://www.w3.org/2000/svg">
<path d="M62.8015 107.41C61.2848 110.097 59.1182 110.703 56.3015 109.23L19.6415 88.69C17.4748 87.4333 16.3915 85.57 16.3915 83.1C16.3915 81.0633 17.4748 79.4167 19.6415 78.16L56.3015 57.75C59.0315 56.32 61.1982 56.9267 62.8015 59.57C64.2315 62.3433 63.5815 64.51 60.8515 66.07L26.2715 85.18V81.54L60.9815 101.04C63.6682 102.643 64.2748 104.767 62.8015 107.41ZM90.2802 49.43C86.1636 49.43 84.1052 47.35 84.1052 43.19V39.355C84.1052 35.2817 86.1636 33.245 90.2802 33.245H94.0502C97.9936 33.245 99.9652 35.2817 99.9652 39.355V43.19C99.9652 47.35 97.9936 49.43 94.0502 49.43H90.2802ZM77.6702 152C75.8069 152 74.4419 151.523 73.5752 150.57C72.7519 149.617 72.3402 148.273 72.3402 146.54C72.3402 144.763 72.7952 143.398 73.7052 142.445C74.6152 141.535 75.9369 141.08 77.6702 141.08C81.1802 141.08 83.5202 140.473 84.6902 139.26C85.9036 138.09 86.5102 135.75 86.5102 132.24V65.55C86.5102 61.91 88.3302 60.09 91.9702 60.09C95.6102 60.09 97.4302 61.91 97.4302 65.55V132.24C97.4302 138.913 95.8052 143.875 92.5552 147.125C89.3486 150.375 84.3869 152 77.6702 152ZM137.599 126C130.969 126 126.029 124.375 122.779 121.125C119.573 117.832 117.969 112.87 117.969 106.24V39.94C117.969 36.3 119.789 34.48 123.429 34.48C127.069 34.48 128.889 36.3 128.889 39.94V106.24C128.889 109.75 129.453 112.112 130.579 113.325C131.749 114.495 134.089 115.08 137.599 115.08C141.326 115.08 143.189 116.9 143.189 120.54C143.319 124.18 141.456 126 137.599 126ZM159.02 107.41C157.546 104.767 158.153 102.643 160.84 101.04L195.55 81.54V85.18L160.97 66.07C158.24 64.51 157.59 62.3433 159.02 59.57C160.623 56.9267 162.79 56.32 165.52 57.75L202.18 78.16C204.346 79.4167 205.43 81.0633 205.43 83.1C205.43 85.57 204.346 87.4333 202.18 88.69L165.52 109.23C162.703 110.703 160.536 110.097 159.02 107.41Z" fill="#FE5626"/>
</svg>
